<svg width="24" height="24" viewBox="0 0 24 24" fill="none" xmlns="http://www.w3.org/2000/svg">
<path d="M12.6454 5.59801H11.357C11.2391 5.59801 11.1427 5.69444 11.1427 5.81229V13.1864C11.1427 13.256 11.1748 13.3203 11.2311 13.3605L15.6588 16.5935C15.7552 16.6632 15.8891 16.6444 15.9588 16.548L16.7248 15.5034C16.7971 15.4043 16.7757 15.2703 16.6793 15.2034L12.8596 12.4418V5.81229C12.8596 5.69444 12.7632 5.59801 12.6454 5.59801ZM18.5329 7.61229L22.7329 8.63819C22.8668 8.67033 22.998 8.56854 22.998 8.43194L23.0195 4.10604C23.0195 3.92658 22.8132 3.82479 22.6739 3.93729L18.4525 7.23462C18.4206 7.2593 18.3963 7.29248 18.3824 7.33035C18.3685 7.36823 18.3656 7.40925 18.374 7.4487C18.3824 7.48815 18.4018 7.52444 18.4299 7.55338C18.458 7.58232 18.4937 7.60274 18.5329 7.61229ZM23.0248 15.6775L21.5061 15.1552C21.4531 15.137 21.3952 15.1403 21.3446 15.1643C21.2941 15.1883 21.2549 15.2312 21.2355 15.2837C21.1846 15.4203 21.1311 15.5543 21.0748 15.6882C20.598 16.8159 19.915 17.831 19.0418 18.7016C18.1783 19.5678 17.1549 20.2582 16.0284 20.7346C14.8614 21.228 13.607 21.4813 12.34 21.4793C11.0596 21.4793 9.81947 21.2302 8.65161 20.7346C7.52511 20.2582 6.50174 19.5678 5.63822 18.7016C4.76768 17.831 4.08465 16.8159 3.60519 15.6882C3.11452 14.5206 2.86312 13.2663 2.8659 11.9998C2.8659 10.7194 3.11501 9.47658 3.61054 8.30872C4.08733 7.18104 4.77036 6.16587 5.64358 5.29533C6.5071 4.42913 7.53047 3.7387 8.65697 3.26229C9.81947 2.76676 11.0623 2.51765 12.3427 2.51765C13.623 2.51765 14.8632 2.76676 16.0311 3.26229C17.1576 3.7387 18.181 4.42913 19.0445 5.29533C19.3177 5.57122 19.5748 5.85783 19.8105 6.16051L21.4123 4.90694C19.3043 2.21229 16.023 0.479258 12.3373 0.481937C5.91947 0.484615 0.765899 5.69712 0.830185 12.1177C0.894471 18.4257 6.02393 23.5177 12.3427 23.5177C17.3114 23.5177 21.5436 20.3677 23.1561 15.956C23.1963 15.8435 23.1373 15.7177 23.0248 15.6775Z" fill="#FFAB00"/>
</svg>
