<svg width="12" height="12" viewBox="0 0 12 12" fill="none" xmlns="http://www.w3.org/2000/svg">
<path d="M6.92521 6.00014L11.6127 0.41264C11.6913 0.319782 11.6252 0.178711 11.5038 0.178711H10.0788C9.99486 0.178711 9.9145 0.216211 9.85914 0.280497L5.99307 4.88942L2.127 0.280497C2.07343 0.216211 1.99307 0.178711 1.90736 0.178711H0.482356C0.360927 0.178711 0.294856 0.319782 0.373427 0.41264L5.06093 6.00014L0.373427 11.5876C0.355826 11.6083 0.344535 11.6336 0.340893 11.6606C0.33725 11.6875 0.341411 11.7149 0.352879 11.7395C0.364348 11.7642 0.382645 11.785 0.405595 11.7995C0.428546 11.8141 0.455187 11.8217 0.482356 11.8216H1.90736C1.99128 11.8216 2.07164 11.7841 2.127 11.7198L5.99307 7.11085L9.85914 11.7198C9.91271 11.7841 9.99307 11.8216 10.0788 11.8216H11.5038C11.6252 11.8216 11.6913 11.6805 11.6127 11.5876L6.92521 6.00014Z" fill="#8992A1"/>
</svg>
