<svg width="16" height="14" viewBox="0 0 16 14" fill="none" xmlns="http://www.w3.org/2000/svg">
<path d="M15.4286 0.714355H0.571429C0.255357 0.714355 0 0.969713 0 1.28578L0 12.7144C0 13.0304 0.255357 13.2858 0.571429 13.2858H15.4286C15.7446 13.2858 16 13.0304 16 12.7144V1.28578C16 0.969713 15.7446 0.714355 15.4286 0.714355ZM14.7143 2.69293V12.0001H1.28571V2.69293L0.792857 2.309L1.49464 1.40721L2.25893 2.00186H13.7429L14.5071 1.40721L15.2089 2.309L14.7143 2.69293ZM13.7429 2.00007L8 6.46436L2.25714 2.00007L1.49286 1.40543L0.791072 2.30721L1.28393 2.69114L7.38393 7.434C7.55936 7.57029 7.77518 7.64427 7.99732 7.64427C8.21947 7.64427 8.43529 7.57029 8.61071 7.434L14.7143 2.69293L15.2071 2.309L14.5054 1.40721L13.7429 2.00007Z" fill="#3C4C68"/>
</svg>
