<svg width="15" height="14" viewBox="0 0 15 14" fill="none" xmlns="http://www.w3.org/2000/svg">
<path d="M13.7199 11.3824H12.7591C12.6841 11.3824 12.6216 11.4449 12.6216 11.5199V12.6234H1.377V1.377H12.6234V2.48057C12.6234 2.55557 12.6859 2.61807 12.7609 2.61807H13.7216C13.7966 2.61807 13.8591 2.55735 13.8591 2.48057V0.691281C13.8591 0.387709 13.6145 0.143066 13.3109 0.143066H0.691281C0.387709 0.143066 0.143066 0.387709 0.143066 0.691281V13.3091C0.143066 13.6127 0.387709 13.8574 0.691281 13.8574H13.3091C13.6127 13.8574 13.8574 13.6127 13.8574 13.3091V11.5199C13.8574 11.4431 13.7949 11.3824 13.7199 11.3824ZM14.052 6.88771L11.5181 4.88771C11.4234 4.81271 11.2859 4.88057 11.2859 5.00021V6.35735H5.67878C5.60021 6.35735 5.53592 6.42164 5.53592 6.50021V7.50021C5.53592 7.57878 5.60021 7.64307 5.67878 7.64307H11.2859V9.00021C11.2859 9.11985 11.4252 9.18771 11.5181 9.11271L14.052 7.11271C14.0691 7.09935 14.0829 7.08227 14.0924 7.06278C14.1019 7.04329 14.1068 7.02189 14.1068 7.00021C14.1068 6.97853 14.1019 6.95713 14.0924 6.93764C14.0829 6.91815 14.0691 6.90107 14.052 6.88771Z" fill="#3C4C68"/>
</svg>
