<svg width="16" height="16" viewBox="0 0 16 16" fill="none" xmlns="http://www.w3.org/2000/svg">
<path d="M8 0C3.58214 0 0 3.58214 0 8C0 12.4179 3.58214 16 8 16C12.4179 16 16 12.4179 16 8C16 3.58214 12.4179 0 8 0ZM8 14.6429C4.33214 14.6429 1.35714 11.6679 1.35714 8C1.35714 4.33214 4.33214 1.35714 8 1.35714C11.6679 1.35714 14.6429 4.33214 14.6429 8C14.6429 11.6679 11.6679 14.6429 8 14.6429ZM6.42857 5.14286H5.57143C5.49286 5.14286 5.42857 5.20714 5.42857 5.28571V10.7143C5.42857 10.7929 5.49286 10.8571 5.57143 10.8571H6.42857C6.50714 10.8571 6.57143 10.7929 6.57143 10.7143V5.28571C6.57143 5.20714 6.50714 5.14286 6.42857 5.14286ZM10.4286 5.14286H9.57143C9.49286 5.14286 9.42857 5.20714 9.42857 5.28571V10.7143C9.42857 10.7929 9.49286 10.8571 9.57143 10.8571H10.4286C10.5071 10.8571 10.5714 10.7929 10.5714 10.7143V5.28571C10.5714 5.20714 10.5071 5.14286 10.4286 5.14286Z" fill="#3C4C68"/>
</svg>
