<svg width="14" height="14" viewBox="0 0 14 14" fill="none" xmlns="http://www.w3.org/2000/svg">
<path d="M4.85886 0.458985L0.458859 4.85898C0.342787 4.97506 0.285645 5.12684 0.285645 5.27863C0.285645 5.43041 0.342787 5.5822 0.458859 5.69827L3.33743 8.57506C3.31243 8.79291 3.30172 9.01256 3.30172 9.2322C3.30172 10.5393 3.73207 11.8465 4.59279 12.9197C4.64497 12.9847 4.71026 13.038 4.7844 13.076C4.85854 13.1141 4.93988 13.1361 5.0231 13.1407C5.10632 13.1452 5.18957 13.1322 5.26742 13.1024C5.34527 13.0727 5.41598 13.0268 5.47493 12.9679L8.71957 9.72327L12.5624 13.5697C12.6093 13.6168 12.6712 13.6459 12.7374 13.6518L13.4017 13.7126C13.5696 13.7286 13.7124 13.5947 13.7124 13.4286C13.7124 13.4197 13.7124 13.4108 13.7106 13.4018L13.6499 12.7376C13.6446 12.6715 13.6142 12.609 13.5678 12.5626L9.72136 8.71613L12.966 5.47149C13.0821 5.35541 13.1392 5.20363 13.1392 5.05184C13.1392 4.87863 13.0642 4.7072 12.9178 4.58934C11.6624 3.58399 10.091 3.16613 8.57136 3.33577L5.69457 0.458985C5.466 0.228628 5.091 0.228628 4.85886 0.458985ZM7.666 4.24648L8.1035 4.68398L8.71779 4.61613C9.66791 4.50972 10.6277 4.69931 11.466 5.15899L5.15707 11.4643C5.03029 11.234 4.92314 10.9947 4.83743 10.7447C4.66957 10.259 4.58564 9.75006 4.58564 9.2322C4.58564 9.06077 4.59457 8.88756 4.61422 8.71613L4.68207 8.10184L4.24457 7.66434L1.85707 5.27684L5.27672 1.8572L7.666 4.24648Z" fill="#3C4C68"/>
</svg>
