<svg width="14" height="16" viewBox="0 0 14 16" fill="none" xmlns="http://www.w3.org/2000/svg">
<path d="M10.1428 4.42864V3.5715C10.1428 3.49293 10.0785 3.42864 9.99993 3.42864H3.14279C3.06422 3.42864 2.99993 3.49293 2.99993 3.5715V4.42864C2.99993 4.50721 3.06422 4.5715 3.14279 4.5715H9.99993C10.0785 4.5715 10.1428 4.50721 10.1428 4.42864ZM3.14279 6.00007C3.06422 6.00007 2.99993 6.06436 2.99993 6.14293V7.00007C2.99993 7.07864 3.06422 7.14293 3.14279 7.14293H6.4285C6.50707 7.14293 6.57136 7.07864 6.57136 7.00007V6.14293C6.57136 6.06436 6.50707 6.00007 6.4285 6.00007H3.14279ZM9.85707 8.0715C7.72672 8.0715 5.99993 9.79829 5.99993 11.9286C5.99993 14.059 7.72672 15.7858 9.85707 15.7858C11.9874 15.7858 13.7142 14.059 13.7142 11.9286C13.7142 9.79829 11.9874 8.0715 9.85707 8.0715ZM11.7767 13.8483C11.2642 14.3608 10.5821 14.6429 9.85707 14.6429C9.13207 14.6429 8.44993 14.3608 7.93743 13.8483C7.42493 13.3358 7.14279 12.6536 7.14279 11.9286C7.14279 11.2036 7.42493 10.5215 7.93743 10.009C8.44993 9.4965 9.13207 9.21436 9.85707 9.21436C10.5821 9.21436 11.2642 9.4965 11.7767 10.009C12.2892 10.5215 12.5714 11.2036 12.5714 11.9286C12.5714 12.6536 12.2892 13.3358 11.7767 13.8483ZM11.4464 10.5715H10.6553C10.6089 10.5715 10.566 10.5929 10.5392 10.6304L9.40529 12.1983L8.99279 11.6286C8.97957 11.6102 8.96213 11.5953 8.94194 11.585C8.92174 11.5748 8.89937 11.5695 8.87672 11.5697H8.08922C7.97315 11.5697 7.90529 11.7019 7.97315 11.7965L9.291 13.6197C9.34814 13.6983 9.46422 13.6983 9.52136 13.6197L11.5606 10.7983C11.6303 10.7036 11.5624 10.5715 11.4464 10.5715ZM5.71422 14.0715H1.57136V1.50007H11.5714V7.64293C11.5714 7.7215 11.6356 7.78579 11.7142 7.78579H12.7142C12.7928 7.78579 12.8571 7.7215 12.8571 7.64293V0.785784C12.8571 0.469713 12.6017 0.214355 12.2856 0.214355H0.857073C0.541002 0.214355 0.285645 0.469713 0.285645 0.785784V14.7858C0.285645 15.1019 0.541002 15.3572 0.857073 15.3572H5.71422C5.79279 15.3572 5.85707 15.2929 5.85707 15.2144V14.2144C5.85707 14.1358 5.79279 14.0715 5.71422 14.0715Z" fill="#3C4C68"/>
</svg>
