<svg width="16" height="16" viewBox="0 0 16 16" fill="none" xmlns="http://www.w3.org/2000/svg">
<g clip-path="url(#clip0_2633_18329)">
<path d="M8 0C3.58214 0 0 3.58214 0 8C0 12.4179 3.58214 16 8 16C12.4179 16 16 12.4179 16 8C16 3.58214 12.4179 0 8 0ZM8 14.6429C4.33214 14.6429 1.35714 11.6679 1.35714 8C1.35714 4.33214 4.33214 1.35714 8 1.35714C11.6679 1.35714 14.6429 4.33214 14.6429 8C14.6429 11.6679 11.6679 14.6429 8 14.6429Z" fill="#395DAB"/>
<path d="M7.14282 11.1429C7.14282 11.3702 7.23313 11.5882 7.39387 11.7489C7.55462 11.9097 7.77264 12 7.99997 12C8.22729 12 8.44531 11.9097 8.60606 11.7489C8.7668 11.5882 8.85711 11.3702 8.85711 11.1429C8.85711 10.9155 8.7668 10.6975 8.60606 10.5368C8.44531 10.376 8.22729 10.2857 7.99997 10.2857C7.77264 10.2857 7.55462 10.376 7.39387 10.5368C7.23313 10.6975 7.14282 10.9155 7.14282 11.1429ZM7.57139 9.14286H8.42854C8.50711 9.14286 8.57139 9.07857 8.57139 9V4.14286C8.57139 4.06429 8.50711 4 8.42854 4H7.57139C7.49282 4 7.42854 4.06429 7.42854 4.14286V9C7.42854 9.07857 7.49282 9.14286 7.57139 9.14286Z" fill="#395DAB"/>
</g>
<defs>
<clipPath id="clip0_2633_18329">
<rect width="16" height="16" fill="white"/>
</clipPath>
</defs>
</svg>
