<svg width="14" height="16" viewBox="0 0 14 16" fill="none" xmlns="http://www.w3.org/2000/svg">
<path d="M10.1428 4.42864V3.5715C10.1428 3.49293 10.0785 3.42864 9.99993 3.42864H3.14279C3.06422 3.42864 2.99993 3.49293 2.99993 3.5715V4.42864C2.99993 4.50721 3.06422 4.5715 3.14279 4.5715H9.99993C10.0785 4.5715 10.1428 4.50721 10.1428 4.42864ZM3.14279 6.00007C3.06422 6.00007 2.99993 6.06436 2.99993 6.14293V7.00007C2.99993 7.07864 3.06422 7.14293 3.14279 7.14293H6.4285C6.50707 7.14293 6.57136 7.07864 6.57136 7.00007V6.14293C6.57136 6.06436 6.50707 6.00007 6.4285 6.00007H3.14279ZM5.71422 14.0715H1.57136V1.50007H11.5714V7.64293C11.5714 7.7215 11.6356 7.78579 11.7142 7.78579H12.7142C12.7928 7.78579 12.8571 7.7215 12.8571 7.64293V0.785784C12.8571 0.469713 12.6017 0.214355 12.2856 0.214355H0.857073C0.541002 0.214355 0.285645 0.469713 0.285645 0.785784V14.7858C0.285645 15.1019 0.541002 15.3572 0.857073 15.3572H5.71422C5.79279 15.3572 5.85707 15.2929 5.85707 15.2144V14.2144C5.85707 14.1358 5.79279 14.0715 5.71422 14.0715ZM13.6731 14.9911L12.0071 13.3251C12.4053 12.7983 12.6428 12.1411 12.6428 11.4286C12.6428 9.69293 11.2356 8.28579 9.49993 8.28579C7.76422 8.28579 6.35707 9.69293 6.35707 11.4286C6.35707 13.1644 7.76422 14.5715 9.49993 14.5715C10.1392 14.5715 10.7321 14.3804 11.2285 14.0536L12.9196 15.7447C12.9481 15.7733 12.9839 15.7858 13.0196 15.7858C13.0553 15.7858 13.0928 15.7715 13.1196 15.7447L13.6731 15.1911C13.6863 15.178 13.6968 15.1625 13.7039 15.1453C13.711 15.1281 13.7147 15.1097 13.7147 15.0911C13.7147 15.0726 13.711 15.0542 13.7039 15.037C13.6968 15.0198 13.6863 15.0043 13.6731 14.9911ZM9.49993 13.4286C8.39457 13.4286 7.49993 12.534 7.49993 11.4286C7.49993 10.3233 8.39457 9.42864 9.49993 9.42864C10.6053 9.42864 11.4999 10.3233 11.4999 11.4286C11.4999 12.534 10.6053 13.4286 9.49993 13.4286Z" fill="#3C4C68"/>
</svg>
