<svg width="16" height="16" viewBox="0 0 16 16" fill="none" xmlns="http://www.w3.org/2000/svg">
<path d="M14.5712 4.30336H9.99979V2.28551C9.99979 1.96943 9.74443 1.71408 9.42836 1.71408H2.14265V0.999791C2.14265 0.921219 2.07836 0.856934 1.99979 0.856934H0.999791C0.921219 0.856934 0.856934 0.921219 0.856934 0.999791V14.9998C0.856934 15.0784 0.921219 15.1426 0.999791 15.1426H1.99979C2.07836 15.1426 2.14265 15.0784 2.14265 14.9998V10.2855H6.57122V12.3034C6.57122 12.6194 6.82658 12.8748 7.14265 12.8748H14.5712C14.8873 12.8748 15.1426 12.6194 15.1426 12.3034V4.87479C15.1426 4.55872 14.8873 4.30336 14.5712 4.30336ZM2.14265 8.99979V2.99979H8.71408V8.99979H2.14265ZM13.8569 11.5891H7.85693V10.2855H9.85693C9.93551 10.2855 9.99979 10.2212 9.99979 10.1426V5.58908H13.8569V11.5891Z" fill="#3C4C68"/>
</svg>
