<svg width="33" height="32" viewBox="0 0 33 32" fill="none" xmlns="http://www.w3.org/2000/svg">
<rect x="1.15381" y="0.5" width="31" height="31" rx="3.5" fill="white"/>
<g clip-path="url(#clip0_891_51555)">
<path d="M17.0842 11.732H16.2252C16.1467 11.732 16.0824 11.7963 16.0824 11.8749V16.7909C16.0824 16.8374 16.1038 16.8802 16.1413 16.907L19.0931 19.0624C19.1574 19.1088 19.2467 19.0963 19.2931 19.032L19.8038 18.3356C19.852 18.2695 19.8377 18.1802 19.7734 18.1356L17.227 16.2945V11.8749C17.227 11.7963 17.1627 11.732 17.0842 11.732ZM21.0092 13.0749L23.8092 13.7588C23.8984 13.7802 23.9859 13.7124 23.9859 13.6213L24.0002 10.7374C24.0002 10.6177 23.8627 10.5499 23.7699 10.6249L20.9556 12.8231C20.9343 12.8395 20.9181 12.8617 20.9089 12.8869C20.8996 12.9122 20.8977 12.9395 20.9033 12.9658C20.9089 12.9921 20.9218 13.0163 20.9405 13.0356C20.9592 13.0549 20.983 13.0685 21.0092 13.0749ZM24.0038 18.4516L22.9913 18.1034C22.956 18.0913 22.9174 18.0935 22.8837 18.1095C22.8499 18.1256 22.8238 18.1541 22.8109 18.1891C22.777 18.2802 22.7413 18.3695 22.7038 18.4588C22.3859 19.2106 21.9306 19.8874 21.3484 20.4677C20.7728 21.0452 20.0905 21.5055 19.3395 21.8231C18.5615 22.152 17.7252 22.3208 16.8806 22.3195C16.027 22.3195 15.2002 22.1534 14.4217 21.8231C13.6707 21.5055 12.9884 21.0452 12.4127 20.4677C11.8324 19.8874 11.377 19.2106 11.0574 18.4588C10.7303 17.6804 10.5627 16.8442 10.5645 15.9999C10.5645 15.1463 10.7306 14.3177 11.0609 13.5391C11.3788 12.7874 11.8342 12.1106 12.4163 11.5302C12.992 10.9528 13.6742 10.4925 14.4252 10.1749C15.2002 9.84451 16.0288 9.67843 16.8824 9.67843C17.7359 9.67843 18.5627 9.84451 19.3413 10.1749C20.0923 10.4925 20.7745 10.9528 21.3502 11.5302C21.5324 11.7141 21.7038 11.9052 21.8609 12.107L22.9288 11.2713C21.5234 9.47486 19.3359 8.31951 16.8788 8.32129C12.6002 8.32308 9.16451 11.7981 9.20737 16.0784C9.25022 20.2838 12.6699 23.6784 16.8824 23.6784C20.1949 23.6784 23.0163 21.5784 24.0913 18.6374C24.1181 18.5624 24.0788 18.4784 24.0038 18.4516Z" fill="#3C4C68"/>
</g>
<rect x="1.15381" y="0.5" width="31" height="31" rx="3.5" stroke="#D4D5D8"/>
<defs>
<clipPath id="clip0_891_51555">
<rect width="16" height="16" fill="white" transform="translate(8.65381 8)"/>
</clipPath>
</defs>
</svg>
