<svg width="16" height="16" viewBox="0 0 16 16" fill="none" xmlns="http://www.w3.org/2000/svg">
<g clip-path="url(#clip0_2612_9455)">
<path d="M11.0967 5.19266C11.0967 5.11409 11.0324 5.0498 10.9538 5.0498L9.77524 5.05516L8.00024 7.17123L6.22702 5.05695L5.04667 5.05159C4.96809 5.05159 4.90381 5.11409 4.90381 5.19445C4.90381 5.22838 4.91631 5.26052 4.93774 5.28731L7.26095 8.05516L4.93774 10.8212C4.91616 10.8474 4.90419 10.8802 4.90381 10.9141C4.90381 10.9927 4.96809 11.0569 5.04667 11.0569L6.22702 11.0516L8.00024 8.93552L9.77345 11.0498L10.952 11.0552C11.0306 11.0552 11.0949 10.9927 11.0949 10.9123C11.0949 10.8784 11.0824 10.8462 11.061 10.8194L8.74131 8.05338L11.0645 5.28552C11.086 5.26052 11.0967 5.22659 11.0967 5.19266Z" fill="#616E84"/>
<path d="M8 0.0175781C3.58214 0.0175781 0 3.59972 0 8.01758C0 12.4354 3.58214 16.0176 8 16.0176C12.4179 16.0176 16 12.4354 16 8.01758C16 3.59972 12.4179 0.0175781 8 0.0175781ZM8 14.6604C4.33214 14.6604 1.35714 11.6854 1.35714 8.01758C1.35714 4.34972 4.33214 1.37472 8 1.37472C11.6679 1.37472 14.6429 4.34972 14.6429 8.01758C14.6429 11.6854 11.6679 14.6604 8 14.6604Z" fill="#616E84"/>
</g>
<defs>
<clipPath id="clip0_2612_9455">
<rect width="16" height="16" fill="white"/>
</clipPath>
</defs>
</svg>
