<svg width="33" height="32" viewBox="0 0 33 32" fill="none" xmlns="http://www.w3.org/2000/svg">
<rect x="1.15381" y="0.5" width="31" height="31" rx="3.5" fill="white"/>
<g clip-path="url(#clip0_1506_115916)">
<path d="M16.6538 8C12.236 8 8.65381 11.5821 8.65381 16C8.65381 20.4179 12.236 24 16.6538 24C21.0717 24 24.6538 20.4179 24.6538 16C24.6538 11.5821 21.0717 8 16.6538 8ZM16.6538 22.6429C12.986 22.6429 10.011 19.6679 10.011 16C10.011 12.3321 12.986 9.35714 16.6538 9.35714C20.3217 9.35714 23.2967 12.3321 23.2967 16C23.2967 19.6679 20.3217 22.6429 16.6538 22.6429ZM16.7538 13.1304C17.7002 13.1304 18.3431 13.7339 18.4145 14.6196C18.4199 14.6946 18.4824 14.7518 18.5574 14.7518H19.5699C19.6163 14.7518 19.6538 14.7143 19.6538 14.6679C19.6538 13.1196 18.4324 12.0357 16.7485 12.0357C14.786 12.0357 13.6538 13.3607 13.6538 15.55V16.4839C13.6538 18.6571 14.786 19.9643 16.7485 19.9643C18.427 19.9643 19.6538 18.9143 19.6538 17.4393C19.6538 17.3929 19.6163 17.3554 19.5699 17.3554H18.5556C18.4806 17.3554 18.4199 17.4125 18.4127 17.4857C18.3377 18.3089 17.6967 18.875 16.752 18.875C15.586 18.875 14.9288 18.0196 14.9288 16.4893V15.55C14.9306 13.9964 15.5895 13.1304 16.7538 13.1304Z" fill="#3C4C68"/>
</g>
<rect x="1.15381" y="0.5" width="31" height="31" rx="3.5" stroke="#D4D5D8"/>
<defs>
<clipPath id="clip0_1506_115916">
<rect x="8.65381" y="8" width="16" height="16" fill="white"/>
</clipPath>
</defs>
</svg>
