<svg width="17" height="17" viewBox="0 0 17 17" fill="none" xmlns="http://www.w3.org/2000/svg">
<g clip-path="url(#clip0_2343_3480)">
<path d="M11.9931 5.854H11.1556C10.9735 5.854 10.8002 5.9415 10.6931 6.0915L7.88595 9.98436L6.61452 8.22008C6.50738 8.07186 6.33595 7.98258 6.15202 7.98258H5.31452C5.19845 7.98258 5.13059 8.11472 5.19845 8.20936L7.42345 11.2951C7.47601 11.3684 7.54531 11.4282 7.62558 11.4695C7.70586 11.5107 7.79481 11.5322 7.88506 11.5322C7.97531 11.5322 8.06426 11.5107 8.14454 11.4695C8.22481 11.4282 8.2941 11.3684 8.34667 11.2951L12.1074 6.08079C12.177 5.98615 12.1092 5.854 11.9931 5.854Z" fill="#616E84"/>
<path d="M8.65381 0.693359C4.23595 0.693359 0.653809 4.2755 0.653809 8.69336C0.653809 13.1112 4.23595 16.6934 8.65381 16.6934C13.0717 16.6934 16.6538 13.1112 16.6538 8.69336C16.6538 4.2755 13.0717 0.693359 8.65381 0.693359ZM8.65381 15.3362C4.98595 15.3362 2.01095 12.3612 2.01095 8.69336C2.01095 5.0255 4.98595 2.0505 8.65381 2.0505C12.3217 2.0505 15.2967 5.0255 15.2967 8.69336C15.2967 12.3612 12.3217 15.3362 8.65381 15.3362Z" fill="#616E84"/>
</g>
<defs>
<clipPath id="clip0_2343_3480">
<rect width="16" height="16" fill="white" transform="translate(0.653809 0.693359)"/>
</clipPath>
</defs>
</svg>
