<svg width="13" height="13" viewBox="0 0 13 13" fill="none" xmlns="http://www.w3.org/2000/svg">
<path d="M7.57878 6.6935L12.2663 1.106C12.3448 1.01314 12.2788 0.87207 12.1574 0.87207H10.7324C10.6484 0.87207 10.5681 0.90957 10.5127 0.973856L6.64664 5.58278L2.78056 0.973856C2.72699 0.90957 2.64663 0.87207 2.56092 0.87207H1.13592C1.01449 0.87207 0.94842 1.01314 1.02699 1.106L5.71449 6.6935L1.02699 12.281C1.00939 12.3017 0.998099 12.327 0.994457 12.3539C0.990815 12.3809 0.994975 12.4083 1.00644 12.4329C1.01791 12.4575 1.03621 12.4783 1.05916 12.4929C1.08211 12.5074 1.10875 12.5151 1.13592 12.5149H2.56092C2.64485 12.5149 2.72521 12.4774 2.78056 12.4131L6.64664 7.80421L10.5127 12.4131C10.5663 12.4774 10.6466 12.5149 10.7324 12.5149H12.1574C12.2788 12.5149 12.3448 12.3739 12.2663 12.281L7.57878 6.6935Z" fill="#8992A1"/>
</svg>
