<svg width="21" height="25" viewBox="0 0 21 25" fill="none" xmlns="http://www.w3.org/2000/svg">
<path d="M15.3681 7.14272V5.857C15.3681 5.73915 15.2717 5.64272 15.1538 5.64272H4.86811C4.75025 5.64272 4.65383 5.73915 4.65383 5.857V7.14272C4.65383 7.26057 4.75025 7.357 4.86811 7.357H15.1538C15.2717 7.357 15.3681 7.26057 15.3681 7.14272ZM4.86811 9.49986C4.75025 9.49986 4.65383 9.59629 4.65383 9.71415V10.9999C4.65383 11.1177 4.75025 11.2141 4.86811 11.2141H9.79668C9.91454 11.2141 10.011 11.1177 10.011 10.9999V9.71415C10.011 9.59629 9.91454 9.49986 9.79668 9.49986H4.86811ZM14.9395 12.607C11.744 12.607 9.15383 15.1972 9.15383 18.3927C9.15383 21.5883 11.744 24.1784 14.9395 24.1784C18.1351 24.1784 20.7253 21.5883 20.7253 18.3927C20.7253 15.1972 18.1351 12.607 14.9395 12.607ZM17.819 21.2722C17.0503 22.0409 16.027 22.4641 14.9395 22.4641C13.852 22.4641 12.8288 22.0409 12.0601 21.2722C11.2913 20.5034 10.8681 19.4802 10.8681 18.3927C10.8681 17.3052 11.2913 16.282 12.0601 15.5133C12.8288 14.7445 13.852 14.3213 14.9395 14.3213C16.027 14.3213 17.0503 14.7445 17.819 15.5133C18.5878 16.282 19.011 17.3052 19.011 18.3927C19.011 19.4802 18.5878 20.5034 17.819 21.2722ZM17.3235 16.357H16.1369C16.0672 16.357 16.0029 16.3891 15.9628 16.4454L14.2619 18.7972L13.6431 17.9427C13.6233 17.9151 13.5971 17.8927 13.5668 17.8773C13.5365 17.8619 13.503 17.854 13.469 17.8543H12.2878C12.1136 17.8543 12.0119 18.0525 12.1136 18.1945L14.0904 20.9293C14.1761 21.0472 14.3503 21.0472 14.436 20.9293L17.4949 16.6972C17.5994 16.5552 17.4976 16.357 17.3235 16.357ZM8.72525 21.607H2.51097V2.74986H17.511V11.9641C17.511 12.082 17.6074 12.1784 17.7253 12.1784H19.2253C19.3431 12.1784 19.4395 12.082 19.4395 11.9641V1.67843C19.4395 1.20432 19.0565 0.821289 18.5824 0.821289H1.43954C0.965433 0.821289 0.582397 1.20432 0.582397 1.67843V22.6784C0.582397 23.1525 0.965433 23.5356 1.43954 23.5356H8.72525C8.84311 23.5356 8.93954 23.4391 8.93954 23.3213V21.8213C8.93954 21.7034 8.84311 21.607 8.72525 21.607Z" fill="#24B082"/>
</svg>
