<svg width="33" height="33" viewBox="0 0 33 33" fill="none" xmlns="http://www.w3.org/2000/svg">
<rect x="0.653809" y="0.693359" width="32" height="32" rx="16" fill="#FBFBFB"/>
<g clip-path="url(#clip0_891_51040)">
<path d="M17.2538 15.6934C16.8538 15.5934 16.4538 15.3934 16.1538 15.0934C15.8538 14.9934 15.7538 14.6934 15.7538 14.4934C15.7538 14.2934 15.8538 13.9934 16.0538 13.8934C16.3538 13.6934 16.6538 13.4934 16.9538 13.5934C17.5538 13.5934 18.0538 13.8934 18.3538 14.2934L19.2538 13.0934C18.9538 12.7934 18.6538 12.5934 18.3538 12.3934C18.0538 12.1934 17.6538 12.0934 17.2538 12.0934V10.6934H16.0538V12.0934C15.5538 12.1934 15.0538 12.4934 14.6538 12.8934C14.2538 13.3934 13.9538 13.9934 14.0538 14.5934C14.0538 15.1934 14.2538 15.7934 14.6538 16.1934C15.1538 16.6934 15.8538 16.9934 16.4538 17.2934C16.7538 17.3934 17.1538 17.5934 17.4538 17.7934C17.6538 17.9934 17.7538 18.2934 17.7538 18.5934C17.7538 18.8934 17.6538 19.1934 17.4538 19.4934C17.1538 19.7934 16.7538 19.8934 16.4538 19.8934C16.0538 19.8934 15.5538 19.7934 15.2538 19.4934C14.9538 19.2934 14.6538 18.9934 14.4538 18.6934L13.4538 19.7934C13.7538 20.1934 14.0538 20.4934 14.4538 20.7934C14.9538 21.0934 15.5538 21.3934 16.1538 21.3934V22.6934H17.2538V21.1934C17.8538 21.0934 18.3538 20.7934 18.7538 20.3934C19.2538 19.8934 19.5538 19.0934 19.5538 18.3934C19.5538 17.7934 19.3538 17.0934 18.8538 16.6934C18.3538 16.1934 17.8538 15.8934 17.2538 15.6934ZM16.6538 8.69336C12.2538 8.69336 8.65381 12.2934 8.65381 16.6934C8.65381 21.0934 12.2538 24.6934 16.6538 24.6934C21.0538 24.6934 24.6538 21.0934 24.6538 16.6934C24.6538 12.2934 21.0538 8.69336 16.6538 8.69336ZM16.6538 23.5934C12.8538 23.5934 9.75381 20.4934 9.75381 16.6934C9.75381 12.8934 12.8538 9.79336 16.6538 9.79336C20.4538 9.79336 23.5538 12.8934 23.5538 16.6934C23.5538 20.4934 20.4538 23.5934 16.6538 23.5934Z" fill="#24B082"/>
</g>
<defs>
<clipPath id="clip0_891_51040">
<rect width="16" height="16" fill="white" transform="translate(8.65381 8.69336)"/>
</clipPath>
</defs>
</svg>
