<svg width="15" height="15" viewBox="0 0 15 15" fill="none" xmlns="http://www.w3.org/2000/svg">
<path d="M3.11274 11.9789C3.14845 11.9789 3.18417 11.9753 3.21988 11.9699L6.22345 11.4432C6.25917 11.436 6.2931 11.4199 6.3181 11.3932L13.8877 3.82351C13.9043 3.80699 13.9174 3.78736 13.9264 3.76576C13.9353 3.74416 13.94 3.721 13.94 3.69761C13.94 3.67423 13.9353 3.65107 13.9264 3.62947C13.9174 3.60786 13.9043 3.58824 13.8877 3.57172L10.9199 0.602079C10.886 0.56815 10.8413 0.550293 10.7931 0.550293C10.7449 0.550293 10.7002 0.56815 10.6663 0.602079L3.09667 8.17172C3.06988 8.19851 3.05381 8.23065 3.04667 8.26636L2.51988 11.2699C2.50251 11.3656 2.50872 11.4641 2.53796 11.5568C2.56721 11.6495 2.61862 11.7337 2.68774 11.8021C2.80559 11.9164 2.95381 11.9789 3.11274 11.9789ZM4.31631 8.86458L10.7931 2.38958L12.102 3.69851L5.62524 10.1735L4.03774 10.4539L4.31631 8.86458ZM14.2252 13.4789H1.08238C0.766309 13.4789 0.510952 13.7342 0.510952 14.0503V14.6932C0.510952 14.7717 0.575238 14.836 0.653809 14.836H14.6538C14.7324 14.836 14.7967 14.7717 14.7967 14.6932V14.0503C14.7967 13.7342 14.5413 13.4789 14.2252 13.4789Z" fill="#616E84"/>
</svg>
