<svg width="33" height="32" viewBox="0 0 33 32" fill="none" xmlns="http://www.w3.org/2000/svg">
<rect x="1.15381" y="0.5" width="31" height="31" rx="3.5" fill="white"/>
<g clip-path="url(#clip0_891_51558)">
<path d="M24.0824 9.71436H9.22524C8.90917 9.71436 8.65381 9.96971 8.65381 10.2858V21.7144C8.65381 22.0304 8.90917 22.2858 9.22524 22.2858H24.0824C24.3985 22.2858 24.6538 22.0304 24.6538 21.7144V10.2858C24.6538 9.96971 24.3985 9.71436 24.0824 9.71436ZM23.3681 11.6929V21.0001H9.93952V11.6929L9.44667 11.309L10.1485 10.4072L10.9127 11.0019H22.3967L23.161 10.4072L23.8627 11.309L23.3681 11.6929ZM22.3967 11.0001L16.6538 15.4644L10.911 11.0001L10.1467 10.4054L9.44488 11.3072L9.93774 11.6911L16.0377 16.434C16.2132 16.5703 16.429 16.6443 16.6511 16.6443C16.8733 16.6443 17.0891 16.5703 17.2645 16.434L23.3681 11.6929L23.861 11.309L23.1592 10.4072L22.3967 11.0001Z" fill="#3C4C68"/>
</g>
<rect x="1.15381" y="0.5" width="31" height="31" rx="3.5" stroke="#D4D5D8"/>
<defs>
<clipPath id="clip0_891_51558">
<rect width="16" height="16" fill="white" transform="translate(8.65381 8)"/>
</clipPath>
</defs>
</svg>
