<svg width="33" height="32" viewBox="0 0 33 32" fill="none" xmlns="http://www.w3.org/2000/svg">
<rect x="1.15381" y="0.5" width="31" height="31" rx="3.5" fill="white"/>
<path d="M23.3735 20.3824H22.4128C22.3378 20.3824 22.2753 20.4449 22.2753 20.5199V21.6234H11.0306V10.377H22.2771V11.4806C22.2771 11.5556 22.3395 11.6181 22.4145 11.6181H23.3753C23.4503 11.6181 23.5128 11.5574 23.5128 11.4806V9.69128C23.5128 9.38771 23.2681 9.14307 22.9646 9.14307H10.3449C10.0413 9.14307 9.79669 9.38771 9.79669 9.69128V22.3091C9.79669 22.6127 10.0413 22.8574 10.3449 22.8574H22.9628C23.2663 22.8574 23.511 22.6127 23.511 22.3091V20.5199C23.511 20.4431 23.4485 20.3824 23.3735 20.3824ZM23.7056 15.8877L21.1717 13.8877C21.077 13.8127 20.9395 13.8806 20.9395 14.0002V15.3574H15.3324C15.2538 15.3574 15.1895 15.4216 15.1895 15.5002V16.5002C15.1895 16.5788 15.2538 16.6431 15.3324 16.6431H20.9395V18.0002C20.9395 18.1199 21.0788 18.1877 21.1717 18.1127L23.7056 16.1127C23.7227 16.0993 23.7365 16.0823 23.746 16.0628C23.7555 16.0433 23.7604 16.0219 23.7604 16.0002C23.7604 15.9785 23.7555 15.9571 23.746 15.9376C23.7365 15.9181 23.7227 15.9011 23.7056 15.8877Z" fill="#3C4C68"/>
<rect x="1.15381" y="0.5" width="31" height="31" rx="3.5" stroke="#D4D5D8"/>
</svg>
