<svg width="16" height="13" viewBox="0 0 16 13" fill="none" xmlns="http://www.w3.org/2000/svg">
<path d="M15.4286 0.183105H0.571429C0.255357 0.183105 0 0.438463 0 0.754534V12.1831C0 12.4992 0.255357 12.7545 0.571429 12.7545H15.4286C15.7446 12.7545 16 12.4992 16 12.1831V0.754534C16 0.438463 15.7446 0.183105 15.4286 0.183105ZM14.7143 2.16168V11.4688H1.28571V2.16168L0.792857 1.77775L1.49464 0.875963L2.25893 1.47061H13.7429L14.5071 0.875963L15.2089 1.77775L14.7143 2.16168ZM13.7429 1.46882L8 5.93311L2.25714 1.46882L1.49286 0.874177L0.791072 1.77596L1.28393 2.15989L7.38393 6.90275C7.55936 7.03904 7.77518 7.11302 7.99732 7.11302C8.21947 7.11302 8.43529 7.03904 8.61071 6.90275L14.7143 2.16168L15.2071 1.77775L14.5054 0.875963L13.7429 1.46882Z" fill="#395DAB"/>
</svg>
