<svg width="13" height="13" viewBox="0 0 13 13" fill="none" xmlns="http://www.w3.org/2000/svg">
<path d="M5.32048 2.69336V4.02669H1.98714V11.36H9.32048V8.02669H10.6538V12.0267C10.6538 12.2035 10.5836 12.3731 10.4585 12.4981C10.3335 12.6231 10.164 12.6934 9.98714 12.6934H1.32048C1.14366 12.6934 0.974095 12.6231 0.849071 12.4981C0.724046 12.3731 0.653809 12.2035 0.653809 12.0267V3.36003C0.653809 3.18322 0.724046 3.01365 0.849071 2.88862C0.974095 2.7636 1.14366 2.69336 1.32048 2.69336H5.32048ZM12.6538 0.693359V6.02669H11.3205V2.96869L6.12514 8.16469L5.18248 7.22203L10.3771 2.02669H7.32048V0.693359H12.6538Z" fill="#0065FF"/>
</svg>
