<svg width="17" height="13" viewBox="0 0 17 13" fill="none" xmlns="http://www.w3.org/2000/svg">
<path d="M16.3359 6.23278C14.6431 2.66671 12.0841 0.87207 8.65379 0.87207C5.22165 0.87207 2.6645 2.66671 0.971647 6.23457C0.903746 6.37835 0.86853 6.53538 0.86853 6.69439C0.86853 6.8534 0.903746 7.01043 0.971647 7.15421C2.6645 10.7203 5.22343 12.5149 8.65379 12.5149C12.0859 12.5149 14.6431 10.7203 16.3359 7.15243C16.4734 6.86314 16.4734 6.52743 16.3359 6.23278ZM8.65379 11.2292C5.77343 11.2292 3.6645 9.7685 2.177 6.6935C3.6645 3.6185 5.77343 2.15778 8.65379 2.15778C11.5341 2.15778 13.6431 3.6185 15.1306 6.6935C13.6449 9.7685 11.5359 11.2292 8.65379 11.2292ZM8.58236 3.55064C6.84665 3.55064 5.4395 4.95778 5.4395 6.6935C5.4395 8.42921 6.84665 9.83636 8.58236 9.83636C10.3181 9.83636 11.7252 8.42921 11.7252 6.6935C11.7252 4.95778 10.3181 3.55064 8.58236 3.55064ZM8.58236 8.6935C7.477 8.6935 6.58236 7.79886 6.58236 6.6935C6.58236 5.58814 7.477 4.6935 8.58236 4.6935C9.68772 4.6935 10.5824 5.58814 10.5824 6.6935C10.5824 7.79886 9.68772 8.6935 8.58236 8.6935Z" fill="#3C4C68"/>
</svg>
