<svg width="33" height="33" viewBox="0 0 33 33" fill="none" xmlns="http://www.w3.org/2000/svg">
<rect x="0.653809" y="0.693359" width="32" height="32" rx="16" fill="#F1F3F4"/>
<g clip-path="url(#clip0_891_51023)">
<path d="M20.8965 20.2695L16.6538 24.5121L12.4111 20.2695C11.572 19.4304 11.0006 18.3613 10.7691 17.1974C10.5376 16.0335 10.6564 14.8271 11.1105 13.7307C11.5647 12.6344 12.3337 11.6973 13.3204 11.038C14.3071 10.3787 15.4671 10.0269 16.6538 10.0269C17.8405 10.0269 19.0005 10.3787 19.9872 11.038C20.9739 11.6973 21.743 12.6344 22.1971 13.7307C22.6512 14.8271 22.77 16.0335 22.5385 17.1974C22.307 18.3613 21.7356 19.4304 20.8965 20.2695ZM16.6538 17.3601C17.0074 17.3601 17.3466 17.2197 17.5966 16.9696C17.8467 16.7196 17.9871 16.3804 17.9871 16.0268C17.9871 15.6732 17.8467 15.334 17.5966 15.084C17.3466 14.8339 17.0074 14.6935 16.6538 14.6935C16.3002 14.6935 15.9611 14.8339 15.711 15.084C15.461 15.334 15.3205 15.6732 15.3205 16.0268C15.3205 16.3804 15.461 16.7196 15.711 16.9696C15.9611 17.2197 16.3002 17.3601 16.6538 17.3601Z" fill="#0065FF"/>
</g>
<defs>
<clipPath id="clip0_891_51023">
<rect width="16" height="16" fill="white" transform="translate(8.65381 8.69336)"/>
</clipPath>
</defs>
</svg>
