<svg width="17" height="13" viewBox="0 0 17 13" fill="none" xmlns="http://www.w3.org/2000/svg">
<path d="M16.0824 0.407715H1.22524C0.909166 0.407715 0.653809 0.663072 0.653809 0.979144V12.4077C0.653809 12.7238 0.909166 12.9791 1.22524 12.9791H16.0824C16.3985 12.9791 16.6538 12.7238 16.6538 12.4077V0.979144C16.6538 0.663072 16.3985 0.407715 16.0824 0.407715ZM15.3681 2.38629V11.6934H1.93952V2.38629L1.44667 2.00236L2.14845 1.10057L2.91274 1.69522H14.3967L15.161 1.10057L15.8627 2.00236L15.3681 2.38629ZM14.3967 1.69343L8.65381 6.15772L2.91095 1.69343L2.14667 1.09879L1.44488 2.00057L1.93774 2.3845L8.03774 7.12736C8.21316 7.26365 8.42898 7.33763 8.65113 7.33763C8.87328 7.33763 9.0891 7.26365 9.26452 7.12736L15.3681 2.38629L15.861 2.00236L15.1592 1.10057L14.3967 1.69343Z" fill="#395DAB"/>
</svg>
