<svg width="33" height="32" viewBox="0 0 33 32" fill="none" xmlns="http://www.w3.org/2000/svg">
<rect x="1.15381" y="31.5" width="31" height="31" rx="3.5" transform="rotate(-90 1.15381 31.5)" fill="white"/>
<path d="M14.5127 9.45899L10.1127 13.859C9.99666 13.9751 9.93951 14.1268 9.93951 14.2786C9.93951 14.4304 9.99666 14.5822 10.1127 14.6983L12.9913 17.5751C12.9663 17.7929 12.9556 18.0126 12.9556 18.2322C12.9556 19.5393 13.3859 20.8465 14.2467 21.9197C14.2988 21.9847 14.3641 22.038 14.4383 22.076C14.5124 22.1141 14.5937 22.1361 14.677 22.1407C14.7602 22.1452 14.8434 22.1322 14.9213 22.1024C14.9991 22.0727 15.0698 22.0268 15.1288 21.9679L18.3734 18.7233L22.2163 22.5697C22.2631 22.6168 22.3251 22.6459 22.3913 22.6518L23.0556 22.7126C23.2234 22.7286 23.3663 22.5947 23.3663 22.4286C23.3663 22.4197 23.3663 22.4108 23.3645 22.4018L23.3038 21.7376C23.2984 21.6715 23.2681 21.609 23.2217 21.5626L19.3752 17.7161L22.6199 14.4715C22.7359 14.3554 22.7931 14.2036 22.7931 14.0518C22.7931 13.8786 22.7181 13.7072 22.5717 13.5893C21.3163 12.584 19.7449 12.1661 18.2252 12.3358L15.3484 9.45899C15.1199 9.22863 14.7449 9.22863 14.5127 9.45899ZM17.3199 13.2465L17.7574 13.684L18.3717 13.6161C19.3218 13.5097 20.2816 13.6993 21.1199 14.159L14.8109 20.4643C14.6842 20.234 14.577 19.9947 14.4913 19.7447C14.3234 19.259 14.2395 18.7501 14.2395 18.2322C14.2395 18.0608 14.2484 17.8876 14.2681 17.7161L14.3359 17.1018L13.8984 16.6643L11.5109 14.2768L14.9306 10.8572L17.3199 13.2465Z" fill="#3C4C68"/>
<rect x="1.15381" y="31.5" width="31" height="31" rx="3.5" transform="rotate(-90 1.15381 31.5)" stroke="#D4D5D8"/>
</svg>
