<svg width="15" height="13" viewBox="0 0 15 13" fill="none" xmlns="http://www.w3.org/2000/svg">
<path d="M5.65381 3.22356H6.97345V9.26463C6.97345 9.34321 7.03773 9.40749 7.11631 9.40749H8.18774C8.26631 9.40749 8.33059 9.34321 8.33059 9.26463V3.22356H9.65381C9.77345 3.22356 9.83952 3.08606 9.76631 2.99321L7.76631 0.461062C7.75294 0.443988 7.73587 0.430179 7.71638 0.420682C7.69689 0.411185 7.67549 0.40625 7.65381 0.40625C7.63212 0.40625 7.61073 0.411185 7.59124 0.420682C7.57174 0.430179 7.55467 0.443988 7.54131 0.461062L5.54131 2.99142C5.46809 3.08606 5.53416 3.22356 5.65381 3.22356ZM14.1895 8.72892H13.1181C13.0395 8.72892 12.9752 8.79321 12.9752 8.87178V11.6218H2.33238V8.87178C2.33238 8.79321 2.26809 8.72892 2.18952 8.72892H1.11809C1.03952 8.72892 0.975235 8.79321 0.975235 8.87178V12.4075C0.975235 12.7236 1.23059 12.9789 1.54666 12.9789H13.761C14.077 12.9789 14.3324 12.7236 14.3324 12.4075V8.87178C14.3324 8.79321 14.2681 8.72892 14.1895 8.72892Z" fill="#3C4C68"/>
</svg>
