<svg width="16" height="16" viewBox="0 0 16 16" fill="none" xmlns="http://www.w3.org/2000/svg">
<path d="M14.5714 4.30336H10V2.28551C10 1.96943 9.74465 1.71408 9.42858 1.71408H2.14286V0.999791C2.14286 0.921219 2.07858 0.856934 2 0.856934H1C0.921433 0.856934 0.857147 0.921219 0.857147 0.999791V14.9998C0.857147 15.0784 0.921433 15.1426 1 15.1426H2C2.07858 15.1426 2.14286 15.0784 2.14286 14.9998V10.2855H6.57143V12.3034C6.57143 12.6194 6.82679 12.8748 7.14286 12.8748H14.5714C14.8875 12.8748 15.1429 12.6194 15.1429 12.3034V4.87479C15.1429 4.55872 14.8875 4.30336 14.5714 4.30336ZM2.14286 8.99979V2.99979H8.71429V8.99979H2.14286ZM13.8571 11.5891H7.85715V10.2855H9.85715C9.93572 10.2855 10 10.2212 10 10.1426V5.58908H13.8571V11.5891Z" fill="#2D4081"/>
</svg>
