<svg width="16" height="17" viewBox="0 0 16 17" fill="none" xmlns="http://www.w3.org/2000/svg">
<path d="M15.3746 10.724L14.205 9.72395C14.2603 9.38467 14.2889 9.03824 14.2889 8.69181C14.2889 8.34538 14.2603 7.99895 14.205 7.65967L15.3746 6.65967C15.4628 6.58414 15.526 6.48355 15.5556 6.37127C15.5853 6.25899 15.5801 6.14034 15.5407 6.0311L15.5246 5.98467C15.2026 5.08471 14.7204 4.25045 14.1014 3.52217L14.0692 3.48467C13.9941 3.39637 13.8941 3.33289 13.7822 3.30261C13.6703 3.27233 13.5518 3.27666 13.4425 3.31503L11.9907 3.8311C11.455 3.39181 10.8567 3.04538 10.2103 2.80253L9.92995 1.28467C9.9088 1.17046 9.8534 1.06539 9.77111 0.983414C9.68881 0.901441 9.58353 0.846448 9.46924 0.825739L9.42102 0.816811C8.49067 0.648954 7.51209 0.648954 6.58174 0.816811L6.53352 0.825739C6.41923 0.846448 6.31395 0.901441 6.23165 0.983414C6.14936 1.06539 6.09396 1.17046 6.07281 1.28467L5.79067 2.80967C5.14939 3.05258 4.55221 3.39882 4.02281 3.83467L2.56031 3.31503C2.45096 3.27635 2.33243 3.27187 2.22048 3.30217C2.10852 3.33247 2.00844 3.39612 1.93352 3.48467L1.90138 3.52217C1.28307 4.25096 0.800979 5.08509 0.478165 5.98467L0.462094 6.0311C0.381737 6.25431 0.447808 6.50431 0.628165 6.65967L1.81209 7.67038C1.75674 8.0061 1.72995 8.34895 1.72995 8.69003C1.72995 9.03288 1.75674 9.37574 1.81209 9.70967L0.628165 10.7204C0.539943 10.7959 0.476802 10.8965 0.447137 11.0088C0.417472 11.1211 0.422688 11.2397 0.462094 11.349L0.478165 11.3954C0.80138 12.2954 1.27995 13.1257 1.90138 13.8579L1.93352 13.8954C2.00862 13.9837 2.10871 14.0472 2.2206 14.0774C2.33249 14.1077 2.45093 14.1034 2.56031 14.065L4.02281 13.5454C4.55495 13.9829 5.14959 14.3293 5.79067 14.5704L6.07281 16.0954C6.09396 16.2096 6.14936 16.3147 6.23165 16.3966C6.31395 16.4786 6.41923 16.5336 6.53352 16.5543L6.58174 16.5632C7.52064 16.732 8.48212 16.732 9.42102 16.5632L9.46924 16.5543C9.58353 16.5336 9.68881 16.4786 9.77111 16.3966C9.8534 16.3147 9.9088 16.2096 9.92995 16.0954L10.2103 14.5775C10.8565 14.3353 11.4581 13.9877 11.9907 13.549L13.4425 14.065C13.5518 14.1037 13.6703 14.1082 13.7823 14.0779C13.8942 14.0476 13.9943 13.9839 14.0692 13.8954L14.1014 13.8579C14.7228 13.124 15.2014 12.2954 15.5246 11.3954L15.5407 11.349C15.621 11.1293 15.555 10.8793 15.3746 10.724ZM12.9371 7.87038C12.9817 8.14003 13.005 8.41681 13.005 8.6936C13.005 8.97038 12.9817 9.24717 12.9371 9.51681L12.8192 10.2329L14.1532 11.374C13.9509 11.8398 13.6957 12.2808 13.3925 12.6882L11.7353 12.1007L11.1746 12.5615C10.7478 12.9115 10.2728 13.1865 9.75852 13.3793L9.07817 13.6347L8.75852 15.3668C8.25418 15.424 7.745 15.424 7.24066 15.3668L6.92102 13.6311L6.24602 13.3722C5.73709 13.1793 5.26388 12.9043 4.84067 12.5561L4.27995 12.0936L2.61209 12.6865C2.30852 12.2775 2.05495 11.8365 1.85138 11.3722L3.19959 10.2204L3.08352 9.5061C3.04067 9.24003 3.01745 8.96502 3.01745 8.6936C3.01745 8.42038 3.03888 8.14717 3.08352 7.8811L3.19959 7.16681L1.85138 6.01503C2.05317 5.54895 2.30852 5.10967 2.61209 4.70074L4.27995 5.2936L4.84067 4.8311C5.26388 4.48288 5.73709 4.20788 6.24602 4.01503L6.92281 3.75967L7.24245 2.02395C7.74424 1.96681 8.25674 1.96681 8.76031 2.02395L9.07995 3.7561L9.76031 4.01145C10.2728 4.20431 10.7496 4.47931 11.1764 4.82931L11.7371 5.29003L13.3942 4.70253C13.6978 5.11145 13.9514 5.55253 14.155 6.01681L12.821 7.15788L12.9371 7.87038ZM8.00317 5.37217C6.26745 5.37217 4.86031 6.77931 4.86031 8.51503C4.86031 10.2507 6.26745 11.6579 8.00317 11.6579C9.73888 11.6579 11.146 10.2507 11.146 8.51503C11.146 6.77931 9.73888 5.37217 8.00317 5.37217ZM9.41745 9.92931C9.23195 10.1153 9.01151 10.2629 8.76879 10.3634C8.52607 10.4639 8.26587 10.5154 8.00317 10.515C7.46924 10.515 6.96745 10.3061 6.58888 9.92931C6.40285 9.74382 6.25533 9.52337 6.15481 9.28065C6.05429 9.03793 6.00276 8.77773 6.00317 8.51503C6.00317 7.9811 6.21209 7.47931 6.58888 7.10074C6.96745 6.72217 7.46924 6.51503 8.00317 6.51503C8.53709 6.51503 9.03888 6.72217 9.41745 7.10074C9.60348 7.28624 9.751 7.50668 9.85152 7.7494C9.95204 7.99212 10.0036 8.25232 10.0032 8.51503C10.0032 9.04895 9.79424 9.55074 9.41745 9.92931Z" fill="#15284B"/>
</svg>
