<svg width="16" height="16" viewBox="0 0 16 16" fill="none" xmlns="http://www.w3.org/2000/svg">
<path d="M15.3714 10.0306L14.2018 9.03059C14.2571 8.69131 14.2857 8.34488 14.2857 7.99845C14.2857 7.65202 14.2571 7.30559 14.2018 6.96631L15.3714 5.96631C15.4596 5.89078 15.5228 5.79019 15.5524 5.67791C15.5821 5.56563 15.5769 5.44698 15.5375 5.33774L15.5214 5.29131C15.1994 4.39136 14.7172 3.55709 14.0982 2.82881L14.0661 2.79131C13.991 2.70301 13.8909 2.63953 13.779 2.60925C13.6671 2.57897 13.5487 2.5833 13.4393 2.62167L11.9875 3.13774C11.4518 2.69845 10.8536 2.35202 10.2071 2.10917L9.92678 0.591309C9.90563 0.477098 9.85022 0.372027 9.76793 0.290055C9.68564 0.208082 9.58035 0.153088 9.46606 0.13238L9.41785 0.123451C8.48749 -0.0444057 7.50892 -0.0444057 6.57856 0.123451L6.53035 0.13238C6.41606 0.153088 6.31077 0.208082 6.22848 0.290055C6.14619 0.372027 6.09079 0.477098 6.06963 0.591309L5.78749 2.11631C5.14622 2.35922 4.54904 2.70546 4.01963 3.14131L2.55713 2.62167C2.44779 2.58299 2.32926 2.57851 2.2173 2.60881C2.10535 2.63911 2.00526 2.70276 1.93035 2.79131L1.89821 2.82881C1.2799 3.5576 0.797806 4.39173 0.474991 5.29131L0.45892 5.33774C0.378563 5.56095 0.444634 5.81095 0.624991 5.96631L1.80892 6.97702C1.75356 7.31274 1.72678 7.65559 1.72678 7.99667C1.72678 8.33952 1.75356 8.68238 1.80892 9.01631L0.624991 10.027C0.536769 10.1025 0.473628 10.2031 0.443963 10.3154C0.414298 10.4277 0.419515 10.5464 0.45892 10.6556L0.474991 10.702C0.798206 11.602 1.27678 12.4324 1.89821 13.1645L1.93035 13.202C2.00545 13.2903 2.10553 13.3538 2.21742 13.3841C2.32931 13.4144 2.44775 13.41 2.55713 13.3717L4.01963 12.852C4.55178 13.2895 5.14642 13.636 5.78749 13.877L6.06963 15.402C6.09079 15.5162 6.14619 15.6213 6.22848 15.7033C6.31077 15.7853 6.41606 15.8402 6.53035 15.861L6.57856 15.8699C7.51747 16.0386 8.47894 16.0386 9.41785 15.8699L9.46606 15.861C9.58035 15.8402 9.68564 15.7853 9.76793 15.7033C9.85022 15.6213 9.90563 15.5162 9.92678 15.402L10.2071 13.8842C10.8533 13.6419 11.4549 13.2944 11.9875 12.8556L13.4393 13.3717C13.5486 13.4103 13.6672 13.4148 13.7791 13.3845C13.8911 13.3542 13.9911 13.2906 14.0661 13.202L14.0982 13.1645C14.7196 12.4306 15.1982 11.602 15.5214 10.702L15.5375 10.6556C15.6178 10.436 15.5518 10.186 15.3714 10.0306ZM12.9339 7.17702C12.9786 7.44667 13.0018 7.72345 13.0018 8.00024C13.0018 8.27702 12.9786 8.55381 12.9339 8.82345L12.8161 9.53952L14.15 10.6806C13.9478 11.1465 13.6925 11.5875 13.3893 11.9949L11.7321 11.4074L11.1714 11.8681C10.7446 12.2181 10.2696 12.4931 9.75535 12.686L9.07499 12.9413L8.75535 14.6735C8.25101 14.7306 7.74183 14.7306 7.23749 14.6735L6.91785 12.9377L6.24285 12.6788C5.73392 12.486 5.26071 12.211 4.83749 11.8627L4.27678 11.4002L2.60892 11.9931C2.30535 11.5842 2.05178 11.1431 1.84821 10.6788L3.19642 9.52702L3.08035 8.81274C3.03749 8.54667 3.01428 8.27167 3.01428 8.00024C3.01428 7.72702 3.03571 7.45381 3.08035 7.18774L3.19642 6.47345L1.84821 5.32167C2.04999 4.85559 2.30535 4.41631 2.60892 4.00738L4.27678 4.60024L4.83749 4.13774C5.26071 3.78952 5.73392 3.51452 6.24285 3.32167L6.91963 3.06631L7.23928 1.33059C7.74106 1.27345 8.25356 1.27345 8.75714 1.33059L9.07678 3.06274L9.75714 3.31809C10.2696 3.51095 10.7464 3.78595 11.1732 4.13595L11.7339 4.59667L13.3911 4.00917C13.6946 4.41809 13.9482 4.85917 14.1518 5.32345L12.8178 6.46452L12.9339 7.17702ZM7.99999 4.67881C6.26428 4.67881 4.85713 6.08595 4.85713 7.82167C4.85713 9.55738 6.26428 10.9645 7.99999 10.9645C9.73571 10.9645 11.1428 9.55738 11.1428 7.82167C11.1428 6.08595 9.73571 4.67881 7.99999 4.67881ZM9.41428 9.23595C9.22878 9.42198 9.00833 9.5695 8.76562 9.67002C8.5229 9.77054 8.2627 9.82208 7.99999 9.82167C7.46606 9.82167 6.96428 9.61274 6.58571 9.23595C6.39968 9.05046 6.25216 8.83001 6.15164 8.58729C6.05112 8.34457 5.99958 8.08437 5.99999 7.82167C5.99999 7.28774 6.20892 6.78595 6.58571 6.40738C6.96428 6.02881 7.46606 5.82167 7.99999 5.82167C8.53392 5.82167 9.03571 6.02881 9.41428 6.40738C9.60031 6.59288 9.74782 6.81332 9.84834 7.05604C9.94886 7.29876 10.0004 7.55896 9.99999 7.82167C9.99999 8.35559 9.79106 8.85738 9.41428 9.23595Z" fill="#2D4081"/>
</svg>
