<svg width="12" height="12" viewBox="0 0 12 12" fill="none" xmlns="http://www.w3.org/2000/svg">
<path d="M6 0C2.68661 0 0 2.68661 0 6C0 9.31339 2.68661 12 6 12C9.31339 12 12 9.31339 12 6C12 2.68661 9.31339 0 6 0ZM8.59152 4.04063L5.77098 7.95134C5.73156 8.00636 5.67959 8.0512 5.61938 8.08212C5.55918 8.11305 5.49246 8.12919 5.42478 8.12919C5.35709 8.12919 5.29038 8.11305 5.23017 8.08212C5.16996 8.0512 5.11799 8.00636 5.07857 7.95134L3.40848 5.63705C3.35759 5.56607 3.40848 5.46696 3.49554 5.46696H4.12366C4.26027 5.46696 4.39018 5.53259 4.47054 5.64509L5.42411 6.9683L7.52946 4.04866C7.60982 3.9375 7.73839 3.87054 7.87634 3.87054H8.50446C8.59152 3.87054 8.64241 3.96964 8.59152 4.04063Z" fill="#24B082"/>
</svg>
