<svg width="12" height="12" viewBox="0 0 12 12" fill="none" xmlns="http://www.w3.org/2000/svg">
<path d="M11.9424 10.6071L6.37099 0.964286C6.28795 0.820982 6.14465 0.75 6 0.75C5.85536 0.75 5.71072 0.820982 5.62902 0.964286L0.057593 10.6071C-0.107139 10.8938 0.0991108 11.25 0.428575 11.25H11.5714C11.9009 11.25 12.1071 10.8938 11.9424 10.6071ZM5.57143 4.71429C5.57143 4.65536 5.61965 4.60714 5.67858 4.60714H6.32143C6.38036 4.60714 6.42858 4.65536 6.42858 4.71429V7.17857C6.42858 7.2375 6.38036 7.28571 6.32143 7.28571H5.67858C5.61965 7.28571 5.57143 7.2375 5.57143 7.17857V4.71429ZM6 9.42857C5.83178 9.42514 5.6716 9.3559 5.55385 9.23571C5.43609 9.11553 5.37014 8.95397 5.37014 8.78572C5.37014 8.61746 5.43609 8.4559 5.55385 8.33572C5.6716 8.21553 5.83178 8.14629 6 8.14286C6.16823 8.14629 6.3284 8.21553 6.44616 8.33572C6.56392 8.4559 6.62987 8.61746 6.62987 8.78572C6.62987 8.95397 6.56392 9.11553 6.44616 9.23571C6.3284 9.3559 6.16823 9.42514 6 9.42857Z" fill="#D6792D"/>
</svg>
