<svg width="40" height="20" viewBox="0 0 40 20" fill="none" xmlns="http://www.w3.org/2000/svg">
<rect width="40" height="20" rx="10" fill="#D6792D"/>
<circle cx="10" cy="10" r="8" fill="white"/>
<path d="M14.5266 12.4427L10.2823 5.09683C10.2191 4.98767 10.1099 4.93359 9.99971 4.93359C9.88952 4.93359 9.77933 4.98767 9.71709 5.09683L5.47284 12.4427C5.34735 12.661 5.50447 12.9324 5.75545 12.9324H14.244C14.4949 12.9324 14.6521 12.661 14.5266 12.4427ZM9.67322 7.95354C9.67322 7.90865 9.70995 7.87192 9.75484 7.87192H10.2446C10.2895 7.87192 10.3262 7.90865 10.3262 7.95354V9.83081C10.3262 9.8757 10.2895 9.91243 10.2446 9.91243H9.75484C9.70995 9.91243 9.67322 9.8757 9.67322 9.83081V7.95354ZM9.99971 11.5448C9.87155 11.5422 9.74953 11.4895 9.65983 11.3979C9.57012 11.3064 9.51988 11.1833 9.51988 11.0551C9.51988 10.9269 9.57012 10.8039 9.65983 10.7123C9.74953 10.6208 9.87155 10.568 9.99971 10.5654C10.1279 10.568 10.2499 10.6208 10.3396 10.7123C10.4293 10.8039 10.4795 10.9269 10.4795 11.0551C10.4795 11.1833 10.4293 11.3064 10.3396 11.3979C10.2499 11.4895 10.1279 11.5422 9.99971 11.5448Z" fill="#D6792D"/>
<rect width="12" height="12" transform="translate(22.5103 4)" fill="white" fill-opacity="0.01"/>
<path d="M25.8779 10.161C25.7877 10.065 25.6631 10.0085 25.5314 10.0038C25.3997 9.99916 25.2715 10.0467 25.1747 10.136C25.0778 10.2254 25.0201 10.3493 25.0142 10.481C25.0082 10.6126 25.0545 10.7413 25.1429 10.839L26.9489 12.7985C27.2174 13.0615 27.6174 13.0615 27.8659 12.8135L28.0479 12.634C28.7052 11.9876 29.3617 11.3405 30.0174 10.6925L30.0374 10.6725C30.6503 10.0686 31.26 9.46138 31.8664 8.85102C31.9571 8.75612 32.0068 8.62939 32.0048 8.49817C32.0028 8.36695 31.9494 8.24177 31.8559 8.14963C31.7625 8.05749 31.6365 8.00579 31.5053 8.00568C31.3741 8.00556 31.248 8.05705 31.1544 8.14902C30.5508 8.75619 29.9441 9.36037 29.3344 9.96152L29.3144 9.98152C28.6861 10.6027 28.0569 11.223 27.4269 11.8425L25.8779 10.161Z" fill="white" stroke="white"/>
</svg>
