<svg width="16" height="16" viewBox="0 0 16 16" fill="none" xmlns="http://www.w3.org/2000/svg">
<path d="M14.5714 0.857178H1.42858C1.1125 0.857178 0.857147 1.11253 0.857147 1.42861V14.5715C0.857147 14.8875 1.1125 15.1429 1.42858 15.1429H14.5714C14.8875 15.1429 15.1429 14.8875 15.1429 14.5715V1.42861C15.1429 1.11253 14.8875 0.857178 14.5714 0.857178ZM11.2768 5.38754L7.51608 10.6018C7.46351 10.6752 7.39422 10.735 7.31394 10.7762C7.23367 10.8174 7.14472 10.839 7.05447 10.839C6.96422 10.839 6.87527 10.8174 6.79499 10.7762C6.71472 10.735 6.64542 10.6752 6.59286 10.6018L4.36608 7.51611C4.29822 7.42146 4.36608 7.28932 4.48215 7.28932H5.31965C5.50179 7.28932 5.675 7.37682 5.78215 7.52682L7.05358 9.29111L9.86072 5.39825C9.96786 5.25003 10.1393 5.16075 10.3232 5.16075H11.1607C11.2768 5.16075 11.3446 5.29289 11.2768 5.38754Z" fill="#0065FF"/>
</svg>
