<svg width="17" height="15" viewBox="0 0 17 15" fill="none" xmlns="http://www.w3.org/2000/svg">
<rect width="17" height="15" fill="#E5E5E5"/>
<g clip-path="url(#clip0_6850_269273)">
<rect width="1367" height="768" transform="translate(-1198 -544.328)" fill="white"/>
<rect x="-291.014" y="-11.8867" width="314" height="39" rx="3.5" stroke="#D4D5D8"/>
<g clip-path="url(#clip1_6850_269273)">
<path d="M16.3684 7.15085C15.7407 5.82835 14.9936 4.74978 14.1273 3.91513L13.2188 4.82371C13.9597 5.53174 14.605 6.45799 15.163 7.61156C13.6773 10.6866 11.5684 12.1473 8.68626 12.1473C7.82114 12.1473 7.0243 12.0141 6.29572 11.7476L5.31126 12.7321C6.32316 13.1994 7.44816 13.433 8.68626 13.433C12.1184 13.433 14.6791 11.6455 16.3684 8.07049C16.4363 7.92672 16.4715 7.76968 16.4715 7.61067C16.4715 7.45166 16.4363 7.29463 16.3684 7.15085ZM15.2332 1.42513L14.472 0.662992C14.4587 0.649709 14.443 0.639173 14.4256 0.631983C14.4083 0.624794 14.3897 0.621094 14.3709 0.621094C14.3521 0.621094 14.3335 0.624794 14.3162 0.631983C14.2989 0.639173 14.2831 0.649709 14.2698 0.662992L12.3168 2.61513C11.24 2.06513 10.0298 1.79013 8.68626 1.79013C5.25412 1.79013 2.6934 3.57764 1.00412 7.15264C0.936216 7.29642 0.901001 7.45345 0.901001 7.61246C0.901001 7.77146 0.936216 7.9285 1.00412 8.07228C1.679 9.49371 2.4915 10.6331 3.44162 11.4903L1.55197 13.3794C1.5252 13.4062 1.51017 13.4425 1.51017 13.4804C1.51017 13.5183 1.5252 13.5546 1.55197 13.5814L2.3143 14.3437C2.34108 14.3705 2.37741 14.3855 2.41528 14.3855C2.45315 14.3855 2.48947 14.3705 2.51626 14.3437L15.2332 1.62728C15.2465 1.61401 15.257 1.59825 15.2642 1.58091C15.2714 1.56357 15.2751 1.54498 15.2751 1.52621C15.2751 1.50743 15.2714 1.48884 15.2642 1.4715C15.257 1.45416 15.2465 1.4384 15.2332 1.42513ZM2.20947 7.61156C3.69697 4.53656 5.8059 3.07585 8.68626 3.07585C9.66019 3.07585 10.5457 3.24299 11.3491 3.58281L10.0938 4.83817C9.49924 4.52096 8.81851 4.40324 8.15198 4.50236C7.48546 4.60148 6.86845 4.91221 6.39196 5.38869C5.91547 5.86518 5.60475 6.48219 5.50563 7.14872C5.4065 7.81524 5.52423 8.49597 5.84144 9.09049L4.3518 10.5801C3.52733 9.85246 2.81662 8.86656 2.20947 7.61156ZM6.61483 7.61156C6.61514 7.29668 6.68973 6.98631 6.83253 6.70566C6.97533 6.42502 7.18231 6.18202 7.43667 5.9964C7.69103 5.81078 7.98559 5.68778 8.29641 5.63739C8.60724 5.587 8.92557 5.61064 9.22555 5.70639L6.70965 8.22228C6.64659 8.02485 6.6146 7.81882 6.61483 7.61156Z" fill="#616E84"/>
<path d="M8.6149 9.61453C8.55311 9.61453 8.49222 9.61168 8.43186 9.60614L7.48865 10.5494C8.05595 10.7666 8.67404 10.8149 9.2682 10.6884C9.86236 10.5618 10.4071 10.2659 10.8367 9.83634C11.2663 9.40678 11.5622 8.86199 11.6887 8.26784C11.8153 7.67368 11.767 7.05559 11.5497 6.48828L10.6065 7.4315C10.612 7.49185 10.6149 7.55275 10.6149 7.61453C10.615 7.87721 10.5634 8.13735 10.4629 8.38007C10.3625 8.62278 10.2152 8.84331 10.0294 9.02906C9.84368 9.2148 9.62315 9.36212 9.38043 9.46258C9.13772 9.56304 8.87758 9.61467 8.6149 9.61453Z" fill="#616E84"/>
</g>
</g>
<defs>
<clipPath id="clip0_6850_269273">
<rect width="1367" height="768" fill="white" transform="translate(-1198 -544.328)"/>
</clipPath>
<clipPath id="clip1_6850_269273">
<rect width="16" height="16" fill="white" transform="translate(0.686279 -0.386719)"/>
</clipPath>
</defs>
</svg>
