<svg width="18" height="19" viewBox="0 0 18 19" fill="none" xmlns="http://www.w3.org/2000/svg">
<g clip-path="url(#clip0_2524_73921)">
<path d="M3.91563 11.4645L3.30063 13.7604L1.05281 13.808C0.381038 12.562 0 11.1364 0 9.62154C0 8.15664 0.356261 6.77521 0.987759 5.55884H0.988242L2.98943 5.92573L3.86608 7.91491C3.6826 8.44982 3.58259 9.02403 3.58259 9.62154C3.58266 10.27 3.70013 10.8913 3.91563 11.4645Z" fill="#FBBB00"/>
<path d="M17.5138 7.97144C17.6153 8.50583 17.6682 9.05772 17.6682 9.62175C17.6682 10.2542 17.6017 10.8711 17.475 11.4662C17.045 13.4913 15.9213 15.2595 14.3647 16.5109L14.3642 16.5104L11.8436 16.3818L11.4868 14.1548C12.5197 13.549 13.3269 12.6011 13.7521 11.4662H9.02832V7.97144H13.821H17.5138Z" fill="#518EF8"/>
<path d="M14.3641 16.5102L14.3646 16.5107C12.8507 17.7275 10.9276 18.4556 8.83412 18.4556C5.46989 18.4556 2.54495 16.5752 1.05286 13.808L3.91568 11.4646C4.66171 13.4556 6.58239 14.873 8.83412 14.873C9.80196 14.873 10.7087 14.6114 11.4868 14.1546L14.3641 16.5102Z" fill="#28B446"/>
<path d="M14.4729 2.82137L11.611 5.16433C10.8058 4.66099 9.85388 4.37023 8.8341 4.37023C6.53141 4.37023 4.5748 5.85259 3.86615 7.91503L0.988276 5.55896H0.987793C2.45804 2.72429 5.41987 0.787598 8.8341 0.787598C10.9776 0.787598 12.9429 1.55112 14.4729 2.82137Z" fill="#F14336"/>
</g>
<defs>
<clipPath id="clip0_2524_73921">
<rect width="17.6681" height="17.6681" fill="white" transform="translate(0 0.787598)"/>
</clipPath>
</defs>
</svg>
