<svg width="17" height="13" viewBox="0 0 17 13" fill="none" xmlns="http://www.w3.org/2000/svg">
<path d="M16.4185 6.15368C14.7256 2.58761 12.1667 0.792969 8.73632 0.792969C5.30418 0.792969 2.74704 2.58761 1.05418 6.15547C0.986281 6.29925 0.951065 6.45628 0.951065 6.61529C0.951065 6.7743 0.986281 6.93133 1.05418 7.07511C2.74704 10.6412 5.30597 12.4358 8.73632 12.4358C12.1685 12.4358 14.7256 10.6412 16.4185 7.07333C16.556 6.78404 16.556 6.44833 16.4185 6.15368ZM8.73632 11.1501C5.85597 11.1501 3.74704 9.6894 2.25954 6.6144C3.74704 3.5394 5.85597 2.07868 8.73632 2.07868C11.6167 2.07868 13.7256 3.5394 15.2131 6.6144C13.7274 9.6894 11.6185 11.1501 8.73632 11.1501ZM8.6649 3.47154C6.92918 3.47154 5.52204 4.87868 5.52204 6.6144C5.52204 8.35011 6.92918 9.75725 8.6649 9.75725C10.4006 9.75725 11.8078 8.35011 11.8078 6.6144C11.8078 4.87868 10.4006 3.47154 8.6649 3.47154ZM8.6649 8.6144C7.55954 8.6144 6.6649 7.71975 6.6649 6.6144C6.6649 5.50904 7.55954 4.6144 8.6649 4.6144C9.77025 4.6144 10.6649 5.50904 10.6649 6.6144C10.6649 7.71975 9.77025 8.6144 8.6649 8.6144Z" fill="#616E84"/>
</svg>
