<svg width="17" height="16" viewBox="0 0 17 16" fill="none" xmlns="http://www.w3.org/2000/svg">
<path d="M5.2143 8.57129H7.92858V11.2856C7.92858 11.3641 7.99287 11.4284 8.07144 11.4284H8.92858C9.00716 11.4284 9.07144 11.3641 9.07144 11.2856V8.57129H11.7857C11.8643 8.57129 11.9286 8.507 11.9286 8.42843V7.57129C11.9286 7.49272 11.8643 7.42843 11.7857 7.42843H9.07144V4.71415C9.07144 4.63557 9.00716 4.57129 8.92858 4.57129H8.07144C7.99287 4.57129 7.92858 4.63557 7.92858 4.71415V7.42843H5.2143C5.13573 7.42843 5.07144 7.49272 5.07144 7.57129V8.42843C5.07144 8.507 5.13573 8.57129 5.2143 8.57129Z" fill="#2D4081"/>
<path d="M15.0714 0.856934H1.92858C1.6125 0.856934 1.35715 1.11229 1.35715 1.42836V14.5712C1.35715 14.8873 1.6125 15.1426 1.92858 15.1426H15.0714C15.3875 15.1426 15.6429 14.8873 15.6429 14.5712V1.42836C15.6429 1.11229 15.3875 0.856934 15.0714 0.856934ZM14.3571 13.8569H2.64286V2.14265H14.3571V13.8569Z" fill="#2D4081"/>
</svg>
