<svg width="12" height="12" viewBox="0 0 12 12" fill="none" xmlns="http://www.w3.org/2000/svg">
<path d="M6.92521 5.99916L11.6127 0.411663C11.6913 0.318806 11.6252 0.177734 11.5038 0.177734H10.0788C9.99486 0.177734 9.9145 0.215234 9.85914 0.27952L5.99307 4.88845L2.127 0.27952C2.07343 0.215234 1.99307 0.177734 1.90736 0.177734H0.482356C0.360927 0.177734 0.294856 0.318806 0.373427 0.411663L5.06093 5.99916L0.373427 11.5867C0.355826 11.6074 0.344535 11.6327 0.340893 11.6596C0.33725 11.6865 0.341411 11.7139 0.352879 11.7386C0.364348 11.7632 0.382645 11.784 0.405595 11.7985C0.428546 11.8131 0.455187 11.8207 0.482356 11.8206H1.90736C1.99128 11.8206 2.07164 11.7831 2.127 11.7188L5.99307 7.10988L9.85914 11.7188C9.91271 11.7831 9.99307 11.8206 10.0788 11.8206H11.5038C11.6252 11.8206 11.6913 11.6795 11.6127 11.5867L6.92521 5.99916Z" fill="#8992A1"/>
</svg>
