<svg width="16" height="16" viewBox="0 0 15 17" fill="none" xmlns="http://www.w3.org/2000/svg">
<path d="M9.94666 11.1539C9.93345 11.1355 9.91601 11.1205 9.89581 11.1103C9.87561 11.1 9.85324 11.0948 9.83059 11.095H9.0413C8.92523 11.095 8.85738 11.2271 8.92523 11.3218L10.2431 13.145C10.3002 13.2235 10.4163 13.2235 10.4734 13.145L12.5127 10.3235C12.5806 10.2289 12.5127 10.0968 12.3967 10.0968H11.6056C11.5592 10.0968 11.5163 10.1182 11.4895 10.1557L10.3556 11.7235L9.94666 11.1539ZM10.7199 4.66818V3.81104C10.7199 3.73246 10.6556 3.66818 10.577 3.66818H3.71987C3.6413 3.66818 3.57702 3.73246 3.57702 3.81104V4.66818C3.57702 4.74675 3.6413 4.81104 3.71987 4.81104H10.577C10.6556 4.81104 10.7199 4.74675 10.7199 4.66818ZM3.71987 6.23961C3.6413 6.23961 3.57702 6.30389 3.57702 6.38246V7.23961C3.57702 7.31818 3.6413 7.38246 3.71987 7.38246H7.00559C7.08416 7.38246 7.14845 7.31818 7.14845 7.23961V6.38246C7.14845 6.30389 7.08416 6.23961 7.00559 6.23961H3.71987ZM7.00559 14.4182H2.14845V1.84675H12.1484V7.13246C12.1484 7.21104 12.2127 7.27532 12.2913 7.27532H13.2913C13.3699 7.27532 13.4342 7.21104 13.4342 7.13246V1.13246C13.4342 0.816392 13.1788 0.561035 12.8627 0.561035H1.43416C1.11809 0.561035 0.862732 0.816392 0.862732 1.13246V15.1325C0.862732 15.4485 1.11809 15.7039 1.43416 15.7039H7.00559C7.08416 15.7039 7.14845 15.6396 7.14845 15.561V14.561C7.14845 14.4825 7.08416 14.4182 7.00559 14.4182ZM14.1949 8.68961L10.7663 7.49854C10.7502 7.49318 10.7359 7.49139 10.7199 7.49139C10.7038 7.49139 10.6877 7.49318 10.6734 7.49854L7.24487 8.68961C7.21686 8.69912 7.19252 8.71714 7.17523 8.74114C7.15795 8.76515 7.14858 8.79395 7.14845 8.82354V13.3075C7.14845 13.3521 7.16809 13.3932 7.2038 13.42L10.6324 16.1021C10.6574 16.1218 10.6895 16.1325 10.7199 16.1325C10.7502 16.1325 10.7824 16.1218 10.8074 16.1021L14.2359 13.42C14.2699 13.3932 14.2913 13.3521 14.2913 13.3075V8.82354C14.2913 8.76282 14.252 8.70925 14.1949 8.68961ZM13.1842 12.8414L10.7199 14.7682L8.25559 12.8414V9.50747L10.7199 8.65032L13.1842 9.50747V12.8414Z" fill="#15284B"/>
</svg>
