<svg width="11" height="11" viewBox="0 0 11 11" fill="none" xmlns="http://www.w3.org/2000/svg">
<path d="M4.99264 7.34215C5.00266 7.35495 5.01547 7.36531 5.03008 7.37243C5.0447 7.37955 5.06075 7.38325 5.07701 7.38325C5.09327 7.38325 5.10932 7.37955 5.12394 7.37243C5.13856 7.36531 5.15137 7.35495 5.16139 7.34215L6.66139 5.44438C6.7163 5.37473 6.66675 5.27161 6.57701 5.27161H5.5846V0.739467C5.5846 0.680539 5.53639 0.632324 5.47746 0.632324H4.67389C4.61496 0.632324 4.56675 0.680539 4.56675 0.739467V5.27027H3.57701C3.48728 5.27027 3.43773 5.3734 3.49264 5.44304L4.99264 7.34215ZM9.9788 6.8734H9.17523C9.1163 6.8734 9.06808 6.92161 9.06808 6.98054V9.04304H1.08594V6.98054C1.08594 6.92161 1.03773 6.8734 0.978799 6.8734H0.175228C0.116299 6.8734 0.0680847 6.92161 0.0680847 6.98054V9.63232C0.0680847 9.86938 0.259603 10.0609 0.496656 10.0609H9.65737C9.89442 10.0609 10.0859 9.86938 10.0859 9.63232V6.98054C10.0859 6.92161 10.0377 6.8734 9.9788 6.8734Z" fill="#395DAB"/>
</svg>
