<svg width="17" height="16" viewBox="0 0 17 16" fill="none" xmlns="http://www.w3.org/2000/svg">
<path d="M11.6429 12.5714V13.4285C11.6429 13.5071 11.5786 13.5714 11.5 13.5714H4.64286C4.56429 13.5714 4.50001 13.5071 4.50001 13.4285V12.5714C4.50001 12.4928 4.56429 12.4285 4.64286 12.4285H11.5C11.5786 12.4285 11.6429 12.4928 11.6429 12.5714ZM4.64286 10.9999C4.56429 10.9999 4.50001 10.9356 4.50001 10.8571V9.99993C4.50001 9.92136 4.56429 9.85707 4.64286 9.85707H7.92858C8.00715 9.85707 8.07144 9.92136 8.07144 9.99993V10.8571C8.07144 10.9356 8.00715 10.9999 7.92858 10.9999H4.64286ZM7.21429 1.9285H3.07144V14.4999H13.0714V8.35707C13.0714 8.2785 13.1357 8.21422 13.2143 8.21422H14.2143C14.2929 8.21422 14.3572 8.2785 14.3572 8.35707V15.2142C14.3572 15.5303 14.1018 15.7856 13.7857 15.7856H2.35715C2.04108 15.7856 1.78572 15.5303 1.78572 15.2142V1.21422C1.78572 0.898144 2.04108 0.642787 2.35715 0.642787H7.21429C7.29286 0.642787 7.35715 0.707072 7.35715 0.785644V1.78564C7.35715 1.86421 7.29286 1.9285 7.21429 1.9285Z" fill="#2D4081"/>
<path d="M7.53292 8.5201C7.55753 8.5201 7.58215 8.51764 7.60676 8.51394L9.67695 8.15086C9.70156 8.14594 9.72495 8.13486 9.74218 8.1164L14.9595 2.8991C14.9709 2.88771 14.9799 2.87419 14.9861 2.8593C14.9923 2.84441 14.9955 2.82845 14.9955 2.81233C14.9955 2.79621 14.9923 2.78025 14.9861 2.76536C14.9799 2.75047 14.9709 2.73694 14.9595 2.72556L12.9139 0.678759C12.8905 0.655374 12.8598 0.643066 12.8265 0.643066C12.7933 0.643066 12.7625 0.655374 12.7391 0.678759L7.52184 5.89606C7.50338 5.91452 7.4923 5.93668 7.48738 5.96129L7.1243 8.03148C7.11232 8.09741 7.1166 8.16527 7.13676 8.22918C7.15692 8.29309 7.19235 8.35112 7.23999 8.39825C7.32122 8.47702 7.42338 8.5201 7.53292 8.5201ZM8.36247 6.37361L12.8265 1.91078L13.7287 2.81294L9.26463 7.27577L8.17046 7.46901L8.36247 6.37361Z" fill="#2D4081"/>
</svg>
