<svg width="19" height="24" viewBox="0 0 19 24" fill="none" xmlns="http://www.w3.org/2000/svg">
<path d="M17.7967 18.8572H17.1538V9.75007C17.1538 5.97061 14.3601 2.84739 10.7252 2.32775V1.28578C10.7252 0.69382 10.2458 0.214355 9.65381 0.214355C9.06184 0.214355 8.58238 0.69382 8.58238 1.28578V2.32775C4.94756 2.84739 2.15381 5.97061 2.15381 9.75007V18.8572H1.51095C1.03684 18.8572 0.653809 19.2402 0.653809 19.7144V20.5715C0.653809 20.6894 0.750237 20.7858 0.868094 20.7858H6.65381C6.65381 22.4411 7.99845 23.7858 9.65381 23.7858C11.3092 23.7858 12.6538 22.4411 12.6538 20.7858H18.4395C18.5574 20.7858 18.6538 20.6894 18.6538 20.5715V19.7144C18.6538 19.2402 18.2708 18.8572 17.7967 18.8572ZM9.65381 22.0715C8.94399 22.0715 8.36809 21.4956 8.36809 20.7858H10.9395C10.9395 21.4956 10.3636 22.0715 9.65381 22.0715ZM4.08238 18.8572V9.75007C4.08238 8.26079 4.66095 6.86257 5.71363 5.80989C6.76631 4.75721 8.16452 4.17864 9.65381 4.17864C11.1431 4.17864 12.5413 4.75721 13.594 5.80989C14.6467 6.86257 15.2252 8.26079 15.2252 9.75007V18.8572H4.08238Z" fill="#3C4C68"/>
</svg>
