<svg width="14" height="14" viewBox="0 0 14 14" fill="none" xmlns="http://www.w3.org/2000/svg">
<g clip-path="url(#clip0_2633_5197)">
<path d="M9.70735 4.09842V3.402C9.70735 3.33816 9.65512 3.28592 9.59128 3.28592H4.01985C3.95601 3.28592 3.90378 3.33816 3.90378 3.402V4.09842C3.90378 4.16226 3.95601 4.2145 4.01985 4.2145H9.59128C9.65512 4.2145 9.70735 4.16226 9.70735 4.09842ZM4.01985 5.37521C3.95601 5.37521 3.90378 5.42744 3.90378 5.49128V6.18771C3.90378 6.25155 3.95601 6.30378 4.01985 6.30378H6.6895C6.75334 6.30378 6.80557 6.25155 6.80557 6.18771V5.49128C6.80557 5.42744 6.75334 5.37521 6.6895 5.37521H4.01985ZM9.47521 7.05825C7.7443 7.05825 6.34128 8.46126 6.34128 10.1922C6.34128 11.9231 7.7443 13.3261 9.47521 13.3261C11.2061 13.3261 12.6091 11.9231 12.6091 10.1922C12.6091 8.46126 11.2061 7.05825 9.47521 7.05825ZM11.0349 11.7519C10.6185 12.1683 10.0643 12.3975 9.47521 12.3975C8.88615 12.3975 8.33191 12.1683 7.9155 11.7519C7.4991 11.3355 7.26985 10.7812 7.26985 10.1922C7.26985 9.60311 7.4991 9.04887 7.9155 8.63246C8.33191 8.21606 8.88615 7.98682 9.47521 7.98682C10.0643 7.98682 10.6185 8.21606 11.0349 8.63246C11.4513 9.04887 11.6806 9.60311 11.6806 10.1922C11.6806 10.7812 11.4513 11.3355 11.0349 11.7519ZM10.7665 9.0895H10.1238C10.086 9.0895 10.0512 9.10691 10.0295 9.13737L9.10814 10.4113L8.77298 9.94842C8.76224 9.93347 8.74807 9.92132 8.73166 9.91299C8.71525 9.90466 8.69708 9.90039 8.67867 9.90055H8.03883C7.94452 9.90055 7.88939 10.0079 7.94452 10.0848L9.01528 11.5662C9.06171 11.63 9.15602 11.63 9.20244 11.5662L10.8594 9.27376C10.9159 9.19686 10.8608 9.0895 10.7665 9.0895ZM6.10914 11.9332H2.74307V1.71896H10.8681V6.71003C10.8681 6.77387 10.9203 6.8261 10.9841 6.8261H11.7966C11.8605 6.8261 11.9127 6.77387 11.9127 6.71003V1.1386C11.9127 0.881794 11.7052 0.674316 11.4484 0.674316H2.16271C1.9059 0.674316 1.69843 0.881794 1.69843 1.1386V12.5136C1.69843 12.7704 1.9059 12.9779 2.16271 12.9779H6.10914C6.17298 12.9779 6.22521 12.9257 6.22521 12.8618V12.0493C6.22521 11.9855 6.17298 11.9332 6.10914 11.9332Z" fill="#24B082"/>
</g>
<defs>
<clipPath id="clip0_2633_5197">
<rect width="13" height="13" fill="white" transform="translate(0.653809 0.5)"/>
</clipPath>
</defs>
</svg>
