<svg width="16" height="16" viewBox="0 0 16 16" fill="none" xmlns="http://www.w3.org/2000/svg">
<path d="M8.15381 0.5C4.01207 0.5 0.653809 3.85826 0.653809 8C0.653809 12.1417 4.01207 15.5 8.15381 15.5C12.2955 15.5 15.6538 12.1417 15.6538 8C15.6538 3.85826 12.2955 0.5 8.15381 0.5ZM8.15381 14.2277C4.71519 14.2277 1.92613 11.4386 1.92613 8C1.92613 4.56138 4.71519 1.77232 8.15381 1.77232C11.5924 1.77232 14.3815 4.56138 14.3815 8C14.3815 11.4386 11.5924 14.2277 8.15381 14.2277ZM6.68059 5.32143H5.87702C5.80336 5.32143 5.74309 5.3817 5.74309 5.45536V10.5446C5.74309 10.6183 5.80336 10.6786 5.87702 10.6786H6.68059C6.75425 10.6786 6.81452 10.6183 6.81452 10.5446V5.45536C6.81452 5.3817 6.75425 5.32143 6.68059 5.32143ZM10.4306 5.32143H9.62702C9.55336 5.32143 9.49309 5.3817 9.49309 5.45536V10.5446C9.49309 10.6183 9.55336 10.6786 9.62702 10.6786H10.4306C10.5043 10.6786 10.5645 10.6183 10.5645 10.5446V5.45536C10.5645 5.3817 10.5043 5.32143 10.4306 5.32143Z" fill="#D6792D"/>
</svg>
