<svg width="16" height="16" viewBox="0 0 13 16" fill="none" xmlns="http://www.w3.org/2000/svg">
<path d="M12.1223 2.50137L6.81296 0.691992C6.7489 0.670117 6.66296 0.65918 6.57703 0.65918C6.49109 0.65918 6.40515 0.670117 6.34109 0.691992L1.03171 2.50137C0.902026 2.54512 0.795776 2.69512 0.795776 2.83262V10.3701C0.795776 10.5076 0.884839 10.6889 0.992651 10.7748L6.37859 14.9717C6.43328 15.0139 6.50359 15.0357 6.57546 15.0357C6.64734 15.0357 6.71921 15.0139 6.77234 14.9717L12.1583 10.7748C12.2661 10.6904 12.3552 10.5092 12.3552 10.3701V2.83262C12.3583 2.69512 12.252 2.54668 12.1223 2.50137ZM11.2333 10.0701L6.57703 13.6982L1.92078 10.0701V3.38887L6.57703 1.80137L11.2333 3.38887V10.0701ZM4.89265 6.92949C4.84578 6.86543 4.77078 6.82637 4.68953 6.82637H3.82703C3.72546 6.82637 3.66609 6.94199 3.72546 7.0248L5.70046 9.74355C5.72382 9.77552 5.75438 9.80152 5.78968 9.81944C5.82498 9.83737 5.864 9.84671 5.90359 9.84671C5.94317 9.84671 5.9822 9.83737 6.0175 9.81944C6.05279 9.80152 6.08336 9.77552 6.10671 9.74355L9.42859 5.17012C9.48796 5.0873 9.42859 4.97168 9.32703 4.97168H8.46453C8.38484 4.97168 8.30828 5.01074 8.2614 5.0748L5.90359 8.32168L4.89265 6.92949Z" fill="white"/>
</svg>
