<svg width="16" height="17" viewBox="0 0 16 17" fill="none" xmlns="http://www.w3.org/2000/svg">
<g clip-path="url(#clip0_1669_480)">
<path d="M11.3393 5.68892H10.5018C10.3197 5.68892 10.1464 5.77642 10.0393 5.92642L7.23215 9.81928L5.96072 8.05499C5.85358 7.90678 5.68215 7.81749 5.49822 7.81749H4.66072C4.54465 7.81749 4.47679 7.94963 4.54465 8.04428L6.76965 11.13C6.82221 11.2034 6.89151 11.2631 6.97178 11.3044C7.05206 11.3456 7.14101 11.3671 7.23126 11.3671C7.32151 11.3671 7.41046 11.3456 7.49073 11.3044C7.57101 11.2631 7.6403 11.2034 7.69287 11.13L11.4536 5.9157C11.5232 5.82106 11.4554 5.68892 11.3393 5.68892Z" fill="#15284B"/>
<path d="M8 0.528198C3.58214 0.528198 0 4.11034 0 8.5282C0 12.9461 3.58214 16.5282 8 16.5282C12.4179 16.5282 16 12.9461 16 8.5282C16 4.11034 12.4179 0.528198 8 0.528198ZM8 15.1711C4.33214 15.1711 1.35714 12.1961 1.35714 8.5282C1.35714 4.86034 4.33214 1.88534 8 1.88534C11.6679 1.88534 14.6429 4.86034 14.6429 8.5282C14.6429 12.1961 11.6679 15.1711 8 15.1711Z" fill="#15284B"/>
</g>
<defs>
<clipPath id="clip0_1669_480">
<rect width="16" height="16" fill="white" transform="translate(0 0.528198)"/>
</clipPath>
</defs>
</svg>
