<svg width="16" height="15" viewBox="0 0 16 15" fill="none" xmlns="http://www.w3.org/2000/svg">
<path d="M7.14286 11.2425C7.14286 11.4698 7.23316 11.6878 7.39391 11.8486C7.55465 12.0093 7.77267 12.0996 8 12.0996C8.22733 12.0996 8.44534 12.0093 8.60609 11.8486C8.76684 11.6878 8.85714 11.4698 8.85714 11.2425C8.85714 11.0152 8.76684 10.7971 8.60609 10.6364C8.44534 10.4756 8.22733 10.3853 8 10.3853C7.77267 10.3853 7.55465 10.4756 7.39391 10.6364C7.23316 10.7971 7.14286 11.0152 7.14286 11.2425ZM7.42857 5.81391V9.09963C7.42857 9.1782 7.49286 9.24248 7.57143 9.24248H8.42857C8.50714 9.24248 8.57143 9.1782 8.57143 9.09963V5.81391C8.57143 5.73534 8.50714 5.67106 8.42857 5.67106H7.57143C7.49286 5.67106 7.42857 5.73534 7.42857 5.81391ZM15.9232 13.6711L8.49464 0.813913C8.38393 0.622841 8.19286 0.528198 8 0.528198C7.80714 0.528198 7.61428 0.622841 7.50536 0.813913L0.0767843 13.6711C-0.142859 14.0532 0.132141 14.5282 0.571427 14.5282H15.4286C15.8679 14.5282 16.1429 14.0532 15.9232 13.6711ZM1.93214 13.1728L8 2.66927L14.0679 13.1728H1.93214Z" fill="#DE350B"/>
</svg>
